<?xml version="1.0" standalone="no"?>
<!DOCTYPE svg PUBLIC "-//W3C//DTD SVG 20010904//EN"
 "http://www.w3.org/TR/2001/REC-SVG-20010904/DTD/svg10.dtd">
<svg version="1.0" xmlns="http://www.w3.org/2000/svg"
 width="615.000000pt" height="615.000000pt" viewBox="0 0 615.000000 615.000000"
 preserveAspectRatio="xMidYMid meet">
<metadata>
Created by potrace 1.14, written by Peter Selinger 2001-2017
</metadata>
<g transform="translate(0.000000,615.000000) scale(0.100000,-0.100000)"
fill="#000000" stroke="none">
<path d="M2840 5569 c-25 -3 -72 -10 -105 -14 -66 -8 -90 -12 -120 -18 -30 -6
-89 -17 -97 -17 -4 -1 -26 -7 -48 -15 -22 -8 -40 -12 -40 -10 0 7 -280 -92
-346 -122 -32 -14 -61 -27 -64 -28 -3 0 -21 -9 -40 -20 -19 -11 -38 -19 -41
-20 -31 -2 -341 -207 -466 -308 -28 -23 -269 -262 -296 -295 -34 -40 -126
-161 -147 -192 -8 -12 -22 -32 -31 -44 -28 -37 -159 -269 -159 -282 0 -7 -4
-14 -8 -16 -7 -3 -87 -184 -87 -198 0 -3 -3 -9 -6 -15 -17 -28 -83 -249 -94
-314 -3 -19 -9 -39 -13 -46 -5 -7 -99 -11 -317 -10 l-310 0 -3 -505 -2 -505
311 0 c171 0 314 -2 317 -5 8 -5 12 -20 19 -65 16 -100 114 -368 193 -530 56
-115 174 -312 220 -368 5 -6 38 -48 72 -92 64 -83 259 -283 338 -348 25 -20
52 -42 60 -49 34 -30 191 -137 265 -182 91 -55 336 -176 357 -176 8 0 18 -4
24 -9 18 -17 314 -108 378 -116 12 -1 32 -5 46 -9 42 -10 82 -16 145 -22 33
-3 74 -9 92 -14 32 -8 453 -6 508 3 17 2 55 8 85 12 30 4 78 11 105 17 28 5
61 12 75 14 96 19 303 83 388 120 28 13 52 21 52 19 0 -2 65 29 144 69 188 95
376 219 516 341 48 42 227 221 274 275 96 110 252 344 316 475 14 28 28 52 33
53 4 2 7 9 7 16 0 7 15 46 34 87 50 110 125 339 142 439 3 14 11 30 18 35 8 6
126 10 315 10 l301 -1 -2 506 -3 505 -308 0 c-339 0 -314 -5 -323 60 -2 11
-14 61 -29 110 -14 50 -28 97 -30 105 -18 68 -112 288 -161 379 -74 135 -165
281 -201 321 -13 14 -23 28 -23 31 0 3 -10 17 -22 31 -13 14 -39 45 -58 69
-55 71 -248 259 -340 333 -76 61 -330 236 -343 236 -3 0 -33 16 -66 35 -34 19
-62 34 -64 34 -1 -1 -37 15 -81 35 -43 20 -82 36 -87 36 -5 0 -17 4 -27 9 -55
28 -211 79 -295 96 -10 2 -28 7 -40 11 -12 4 -33 8 -47 10 -14 1 -36 5 -50 8
-59 13 -78 17 -125 22 -27 3 -77 9 -110 14 -71 10 -410 9 -475 -1z m389 -884
c120 -11 160 -19 276 -50 352 -95 653 -304 888 -617 15 -20 27 -41 27 -46 0
-6 3 -12 8 -14 23 -10 162 -286 162 -322 0 -8 5 -18 10 -21 47 -29 0 -30
-1517 -30 -1516 0 -1528 1 -1525 20 6 31 62 163 100 235 77 144 174 273 295
391 76 76 200 176 248 201 13 8 42 25 64 39 33 22 98 54 220 110 51 23 224 72
300 85 65 11 83 13 155 20 41 3 76 7 77 8 4 3 151 -3 212 -9z m1373 -2135 c-2
-14 -7 -29 -12 -35 -4 -5 -11 -21 -15 -35 -10 -32 -72 -164 -82 -174 -5 -4 -8
-11 -8 -15 0 -8 -84 -140 -100 -157 -5 -6 -19 -23 -30 -38 -53 -74 -167 -192
-245 -254 -25 -21 -47 -40 -50 -43 -10 -13 -191 -128 -210 -134 -11 -4 -20
-11 -20 -16 0 -5 -8 -9 -18 -9 -10 0 -27 -7 -38 -15 -10 -8 -26 -15 -36 -15
-9 0 -18 -4 -20 -8 -3 -8 -107 -50 -144 -57 -12 -3 -40 -11 -63 -20 -23 -8
-44 -14 -46 -14 -3 0 -29 -4 -58 -10 -109 -22 -225 -34 -322 -34 -69 0 -220
11 -256 18 -13 3 -35 7 -49 10 -50 10 -66 13 -125 29 -64 17 -173 54 -190 64
-5 4 -12 7 -15 7 -24 3 -265 135 -280 154 -3 3 -27 22 -55 41 -60 41 -85 63
-179 156 -114 115 -202 233 -280 377 -42 77 -108 236 -102 246 2 3 690 6 1528
6 l1523 -1 -3 -24z"/>
</g>
</svg>
